<mxfile host="app.diagrams.net" modified="2022-01-14T11:30:50.166Z" agent="5.0 (Windows NT 6.1; Win64; x64) AppleWebKit/537.36 (KHTML, like Gecko) Chrome/96.0.4664.110 Safari/537.36" etag="zs7xZruQI0wypdECs_Jb" version="16.2.6" type="github">
  <diagram name="Page-1" id="c4acf3e9-155e-7222-9cf6-157b1a14988f">
    <mxGraphModel dx="1422" dy="794" grid="1" gridSize="10" guides="1" tooltips="1" connect="1" arrows="1" fold="1" page="1" pageScale="1" pageWidth="850" pageHeight="1100" background="none" math="0" shadow="1">
      <root>
        <mxCell id="0" />
        <mxCell id="1" parent="0" />
        <mxCell id="17acba5748e5396b-1" value="frame" style="shape=umlFrame;whiteSpace=wrap;html=1;rounded=0;shadow=0;comic=0;labelBackgroundColor=none;strokeWidth=1;fontFamily=Verdana;fontSize=10;align=center;" parent="1" vertex="1">
          <mxGeometry x="20" y="20" width="820" height="1060" as="geometry" />
        </mxCell>
        <mxCell id="nEyoXZ84Kzv3X6efRgU5-14" value="&lt;p style=&quot;margin: 0px ; margin-top: 4px ; text-align: center&quot;&gt;&lt;b&gt;Dish&lt;/b&gt;&lt;/p&gt;&lt;hr size=&quot;1&quot;&gt;&lt;p style=&quot;margin: 0px ; margin-left: 4px&quot;&gt;name: string&lt;/p&gt;&lt;p style=&quot;margin: 0px ; margin-left: 4px&quot;&gt;weight: float&lt;/p&gt;&lt;p style=&quot;margin: 0px ; margin-left: 4px&quot;&gt;calories: float&lt;/p&gt;&lt;p style=&quot;margin: 0px ; margin-left: 4px&quot;&gt;price: float&lt;/p&gt;&lt;hr size=&quot;1&quot;&gt;&lt;p style=&quot;margin: 0px ; margin-left: 4px&quot;&gt;isOrdered(): bool&lt;/p&gt;" style="verticalAlign=top;align=left;overflow=fill;fontSize=12;fontFamily=Helvetica;html=1;" vertex="1" parent="1">
          <mxGeometry x="60" y="330" width="130" height="130" as="geometry" />
        </mxCell>
        <mxCell id="nEyoXZ84Kzv3X6efRgU5-25" value="Pasta" style="html=1;" vertex="1" parent="1">
          <mxGeometry x="50" y="545" width="80" height="50" as="geometry" />
        </mxCell>
        <mxCell id="nEyoXZ84Kzv3X6efRgU5-27" value="&lt;p style=&quot;margin: 0px ; margin-top: 4px ; text-align: center&quot;&gt;&lt;b&gt;Pizza&lt;/b&gt;&lt;/p&gt;&lt;hr size=&quot;1&quot;&gt;&lt;div style=&quot;height: 2px&quot;&gt;&amp;nbsp; diameter: int&lt;/div&gt;" style="verticalAlign=top;align=left;overflow=fill;fontSize=12;fontFamily=Helvetica;html=1;" vertex="1" parent="1">
          <mxGeometry x="140" y="545" width="80" height="60" as="geometry" />
        </mxCell>
        <mxCell id="nEyoXZ84Kzv3X6efRgU5-28" value="&lt;p style=&quot;margin: 0px ; margin-top: 4px ; text-align: center&quot;&gt;&lt;b&gt;Drink&lt;/b&gt;&lt;/p&gt;&lt;hr size=&quot;1&quot;&gt;&lt;p style=&quot;margin: 0px ; margin-left: 4px&quot;&gt;name: string&lt;/p&gt;&lt;p style=&quot;margin: 0px ; margin-left: 4px&quot;&gt;volume: int&lt;/p&gt;&lt;p style=&quot;margin: 0px ; margin-left: 4px&quot;&gt;price: float&lt;/p&gt;&lt;hr size=&quot;1&quot;&gt;&lt;p style=&quot;margin: 0px ; margin-left: 4px&quot;&gt;isOrdered(): bool&lt;/p&gt;" style="verticalAlign=top;align=left;overflow=fill;fontSize=12;fontFamily=Helvetica;html=1;" vertex="1" parent="1">
          <mxGeometry x="242.5" y="330" width="120" height="130" as="geometry" />
        </mxCell>
        <mxCell id="nEyoXZ84Kzv3X6efRgU5-29" value="&lt;p style=&quot;margin: 0px ; margin-top: 4px ; text-align: center&quot;&gt;&lt;b&gt;Alcohol&lt;/b&gt;&lt;/p&gt;&lt;hr size=&quot;1&quot;&gt;&lt;div style=&quot;height: 2px&quot;&gt;&amp;nbsp; vol: int&lt;/div&gt;" style="verticalAlign=top;align=left;overflow=fill;fontSize=12;fontFamily=Helvetica;html=1;" vertex="1" parent="1">
          <mxGeometry x="250" y="545" width="85" height="60" as="geometry" />
        </mxCell>
        <mxCell id="nEyoXZ84Kzv3X6efRgU5-30" value="&lt;p style=&quot;margin: 0px ; margin-top: 4px ; text-align: center&quot;&gt;&lt;b&gt;Beer&lt;/b&gt;&lt;/p&gt;&lt;hr size=&quot;1&quot;&gt;&lt;div style=&quot;height: 2px&quot;&gt;&amp;nbsp;&amp;nbsp;&lt;/div&gt;&amp;nbsp; sort: string" style="verticalAlign=top;align=left;overflow=fill;fontSize=12;fontFamily=Helvetica;html=1;" vertex="1" parent="1">
          <mxGeometry x="222.5" y="650" width="140" height="60" as="geometry" />
        </mxCell>
        <mxCell id="nEyoXZ84Kzv3X6efRgU5-31" value="&lt;p style=&quot;margin: 0px ; margin-top: 4px ; text-align: center&quot;&gt;&lt;b&gt;ClientsInterface&lt;/b&gt;&lt;/p&gt;&lt;hr size=&quot;1&quot;&gt;&lt;p style=&quot;margin: 0px ; margin-left: 4px&quot;&gt;&lt;br&gt;&lt;/p&gt;&lt;hr size=&quot;1&quot;&gt;&lt;p style=&quot;margin: 0px ; margin-left: 4px&quot;&gt;Click()&lt;/p&gt;&lt;p style=&quot;margin: 0px ; margin-left: 4px&quot;&gt;ToOrder()&lt;/p&gt;&lt;p style=&quot;margin: 0px ; margin-left: 4px&quot;&gt;Pay()&lt;/p&gt;&lt;p style=&quot;margin: 0px ; margin-left: 4px&quot;&gt;CallWaiter()&lt;/p&gt;&lt;p style=&quot;margin: 0px ; margin-left: 4px&quot;&gt;KitchenCam()&lt;/p&gt;&lt;p style=&quot;margin: 0px ; margin-left: 4px&quot;&gt;Games()&lt;/p&gt;" style="verticalAlign=top;align=left;overflow=fill;fontSize=12;fontFamily=Helvetica;html=1;" vertex="1" parent="1">
          <mxGeometry x="370" y="70" width="160" height="150" as="geometry" />
        </mxCell>
        <mxCell id="nEyoXZ84Kzv3X6efRgU5-34" value="" style="endArrow=none;html=1;rounded=0;exitX=0.75;exitY=0;exitDx=0;exitDy=0;" edge="1" parent="1" source="nEyoXZ84Kzv3X6efRgU5-14" target="nEyoXZ84Kzv3X6efRgU5-31">
          <mxGeometry width="50" height="50" relative="1" as="geometry">
            <mxPoint x="320" y="340" as="sourcePoint" />
            <mxPoint x="370" y="290" as="targetPoint" />
          </mxGeometry>
        </mxCell>
        <mxCell id="nEyoXZ84Kzv3X6efRgU5-35" value="" style="endArrow=none;html=1;rounded=0;exitX=0.5;exitY=0;exitDx=0;exitDy=0;" edge="1" parent="1" source="nEyoXZ84Kzv3X6efRgU5-28" target="nEyoXZ84Kzv3X6efRgU5-31">
          <mxGeometry width="50" height="50" relative="1" as="geometry">
            <mxPoint x="380" y="360" as="sourcePoint" />
            <mxPoint x="460" y="290" as="targetPoint" />
          </mxGeometry>
        </mxCell>
        <mxCell id="nEyoXZ84Kzv3X6efRgU5-36" value="Extends" style="endArrow=block;endSize=16;endFill=0;html=1;rounded=0;" edge="1" parent="1" source="nEyoXZ84Kzv3X6efRgU5-25" target="nEyoXZ84Kzv3X6efRgU5-14">
          <mxGeometry width="160" relative="1" as="geometry">
            <mxPoint x="340" y="510" as="sourcePoint" />
            <mxPoint x="500" y="510" as="targetPoint" />
          </mxGeometry>
        </mxCell>
        <mxCell id="nEyoXZ84Kzv3X6efRgU5-37" value="Extends" style="endArrow=block;endSize=16;endFill=0;html=1;rounded=0;" edge="1" parent="1" source="nEyoXZ84Kzv3X6efRgU5-27" target="nEyoXZ84Kzv3X6efRgU5-14">
          <mxGeometry width="160" relative="1" as="geometry">
            <mxPoint x="172.5" y="560" as="sourcePoint" />
            <mxPoint x="214.5" y="500" as="targetPoint" />
          </mxGeometry>
        </mxCell>
        <mxCell id="nEyoXZ84Kzv3X6efRgU5-38" value="Extends" style="endArrow=block;endSize=16;endFill=0;html=1;rounded=0;exitX=0.5;exitY=0;exitDx=0;exitDy=0;" edge="1" parent="1" source="nEyoXZ84Kzv3X6efRgU5-29" target="nEyoXZ84Kzv3X6efRgU5-28">
          <mxGeometry width="160" relative="1" as="geometry">
            <mxPoint x="513.2270967741937" y="550" as="sourcePoint" />
            <mxPoint x="490.00129032258076" y="490" as="targetPoint" />
          </mxGeometry>
        </mxCell>
        <mxCell id="nEyoXZ84Kzv3X6efRgU5-39" value="Extends" style="endArrow=block;endSize=16;endFill=0;html=1;rounded=0;" edge="1" parent="1" source="nEyoXZ84Kzv3X6efRgU5-30" target="nEyoXZ84Kzv3X6efRgU5-29">
          <mxGeometry width="160" relative="1" as="geometry">
            <mxPoint x="499.9970967741938" y="650" as="sourcePoint" />
            <mxPoint x="522.4480903225808" y="590" as="targetPoint" />
          </mxGeometry>
        </mxCell>
        <mxCell id="nEyoXZ84Kzv3X6efRgU5-40" value="Juice" style="html=1;" vertex="1" parent="1">
          <mxGeometry x="360" y="545" width="60" height="50" as="geometry" />
        </mxCell>
        <mxCell id="nEyoXZ84Kzv3X6efRgU5-41" value="Tea" style="html=1;" vertex="1" parent="1">
          <mxGeometry x="430" y="545" width="60" height="50" as="geometry" />
        </mxCell>
        <mxCell id="nEyoXZ84Kzv3X6efRgU5-42" value="Extends" style="endArrow=block;endSize=16;endFill=0;html=1;rounded=0;" edge="1" parent="1" source="nEyoXZ84Kzv3X6efRgU5-40" target="nEyoXZ84Kzv3X6efRgU5-28">
          <mxGeometry width="160" relative="1" as="geometry">
            <mxPoint x="617.5470967741937" y="550" as="sourcePoint" />
            <mxPoint x="639.9980903225808" y="490" as="targetPoint" />
          </mxGeometry>
        </mxCell>
        <mxCell id="nEyoXZ84Kzv3X6efRgU5-43" value="Extends" style="endArrow=block;endSize=16;endFill=0;html=1;rounded=0;" edge="1" parent="1" source="nEyoXZ84Kzv3X6efRgU5-41" target="nEyoXZ84Kzv3X6efRgU5-28">
          <mxGeometry width="160" relative="1" as="geometry">
            <mxPoint x="733.7770967741938" y="550" as="sourcePoint" />
            <mxPoint x="756.2280903225808" y="490" as="targetPoint" />
          </mxGeometry>
        </mxCell>
        <mxCell id="nEyoXZ84Kzv3X6efRgU5-44" value="&lt;p style=&quot;margin: 0px ; margin-top: 4px ; text-align: center&quot;&gt;&lt;b&gt;Order&lt;/b&gt;&lt;/p&gt;&lt;hr size=&quot;1&quot;&gt;&lt;p style=&quot;margin: 0px ; margin-left: 4px&quot;&gt;&lt;br&gt;&lt;/p&gt;&lt;hr size=&quot;1&quot;&gt;&lt;p style=&quot;margin: 0px ; margin-left: 4px&quot;&gt;Check()&lt;/p&gt;&lt;p style=&quot;margin: 0px ; margin-left: 4px&quot;&gt;Modify()&lt;br&gt;&lt;/p&gt;&lt;p style=&quot;margin: 0px ; margin-left: 4px&quot;&gt;SentToTheKitchen()&lt;/p&gt;" style="verticalAlign=top;align=left;overflow=fill;fontSize=12;fontFamily=Helvetica;html=1;" vertex="1" parent="1">
          <mxGeometry x="410" y="330" width="130" height="110" as="geometry" />
        </mxCell>
        <mxCell id="nEyoXZ84Kzv3X6efRgU5-45" value="" style="endArrow=none;html=1;rounded=0;" edge="1" parent="1" source="nEyoXZ84Kzv3X6efRgU5-31" target="nEyoXZ84Kzv3X6efRgU5-44">
          <mxGeometry width="50" height="50" relative="1" as="geometry">
            <mxPoint x="520" y="270" as="sourcePoint" />
            <mxPoint x="570" y="220" as="targetPoint" />
          </mxGeometry>
        </mxCell>
        <mxCell id="nEyoXZ84Kzv3X6efRgU5-46" value="&lt;p style=&quot;margin: 0px ; margin-top: 4px ; text-align: center&quot;&gt;&lt;b&gt;Games&lt;/b&gt;&lt;/p&gt;&lt;hr size=&quot;1&quot;&gt;&lt;p style=&quot;margin: 0px ; margin-left: 4px&quot;&gt;name: string&lt;/p&gt;&lt;hr size=&quot;1&quot;&gt;&lt;p style=&quot;margin: 0px ; margin-left: 4px&quot;&gt;PlayTheGame()&lt;/p&gt;&lt;p style=&quot;margin: 0px ; margin-left: 4px&quot;&gt;&lt;br&gt;&lt;/p&gt;" style="verticalAlign=top;align=left;overflow=fill;fontSize=12;fontFamily=Helvetica;html=1;" vertex="1" parent="1">
          <mxGeometry x="570" y="330" width="100" height="80" as="geometry" />
        </mxCell>
        <mxCell id="nEyoXZ84Kzv3X6efRgU5-47" value="" style="endArrow=none;html=1;rounded=0;" edge="1" parent="1" source="nEyoXZ84Kzv3X6efRgU5-46" target="nEyoXZ84Kzv3X6efRgU5-31">
          <mxGeometry width="50" height="50" relative="1" as="geometry">
            <mxPoint x="640" y="260" as="sourcePoint" />
            <mxPoint x="690" y="210" as="targetPoint" />
          </mxGeometry>
        </mxCell>
        <mxCell id="nEyoXZ84Kzv3X6efRgU5-48" value="&lt;p style=&quot;margin: 0px ; margin-top: 4px ; text-align: center&quot;&gt;&lt;b&gt;Payment&lt;/b&gt;&lt;/p&gt;&lt;hr size=&quot;1&quot;&gt;&lt;p style=&quot;margin: 0px ; margin-left: 4px&quot;&gt;&lt;br&gt;&lt;/p&gt;&lt;hr size=&quot;1&quot;&gt;&lt;p style=&quot;margin: 0px ; margin-left: 4px&quot;&gt;ToPaymentSystem()&lt;/p&gt;&lt;p style=&quot;margin: 0px ; margin-left: 4px&quot;&gt;Tip()&lt;/p&gt;&lt;p style=&quot;margin: 0px ; margin-left: 4px&quot;&gt;&lt;br&gt;&lt;/p&gt;" style="verticalAlign=top;align=left;overflow=fill;fontSize=12;fontFamily=Helvetica;html=1;" vertex="1" parent="1">
          <mxGeometry x="700" y="330" width="120" height="90" as="geometry" />
        </mxCell>
        <mxCell id="nEyoXZ84Kzv3X6efRgU5-49" value="" style="endArrow=none;html=1;rounded=0;" edge="1" parent="1" source="nEyoXZ84Kzv3X6efRgU5-48" target="nEyoXZ84Kzv3X6efRgU5-31">
          <mxGeometry width="50" height="50" relative="1" as="geometry">
            <mxPoint x="650" y="280" as="sourcePoint" />
            <mxPoint x="700" y="230" as="targetPoint" />
          </mxGeometry>
        </mxCell>
        <mxCell id="nEyoXZ84Kzv3X6efRgU5-50" value="Mafia" style="html=1;" vertex="1" parent="1">
          <mxGeometry x="560" y="545" width="60" height="50" as="geometry" />
        </mxCell>
        <mxCell id="nEyoXZ84Kzv3X6efRgU5-51" value="Crocodile" style="html=1;" vertex="1" parent="1">
          <mxGeometry x="650" y="545" width="60" height="50" as="geometry" />
        </mxCell>
        <mxCell id="nEyoXZ84Kzv3X6efRgU5-52" value="Extends" style="endArrow=block;endSize=16;endFill=0;html=1;rounded=0;exitX=0.5;exitY=0;exitDx=0;exitDy=0;" edge="1" parent="1" source="nEyoXZ84Kzv3X6efRgU5-50" target="nEyoXZ84Kzv3X6efRgU5-46">
          <mxGeometry width="160" relative="1" as="geometry">
            <mxPoint x="616.5" y="535" as="sourcePoint" />
            <mxPoint x="540" y="450" as="targetPoint" />
          </mxGeometry>
        </mxCell>
        <mxCell id="nEyoXZ84Kzv3X6efRgU5-53" value="Extends" style="endArrow=block;endSize=16;endFill=0;html=1;rounded=0;" edge="1" parent="1" source="nEyoXZ84Kzv3X6efRgU5-51" target="nEyoXZ84Kzv3X6efRgU5-46">
          <mxGeometry width="160" relative="1" as="geometry">
            <mxPoint x="646.86" y="555" as="sourcePoint" />
            <mxPoint x="670.0028571428571" y="420" as="targetPoint" />
          </mxGeometry>
        </mxCell>
      </root>
    </mxGraphModel>
  </diagram>
</mxfile>
